<svg width="7" height="10" viewBox="0 0 7 10" fill="none" xmlns="http://www.w3.org/2000/svg">
<path d="M5.46967 9.53033C5.76256 9.82322 6.23744 9.82322 6.53033 9.53033C6.82322 9.23744 6.82322 8.76256 6.53033 8.46967L5.46967 9.53033ZM2 5L1.46967 4.46967L0.93934 5L1.46967 5.53033L2 5ZM6.53033 1.53033C6.82322 1.23744 6.82322 0.762563 6.53033 0.46967C6.23744 0.176777 5.76256 0.176777 5.46967 0.46967L6.53033 1.53033ZM6.53033 8.46967L2.53033 4.46967L1.46967 5.53033L5.46967 9.53033L6.53033 8.46967ZM2.53033 5.53033L6.53033 1.53033L5.46967 0.46967L1.46967 4.46967L2.53033 5.53033Z" fill="#A5B0D6"/>
</svg>
