<svg width="115" height="24" viewBox="0 0 115 24" fill="none" xmlns="http://www.w3.org/2000/svg">
<path d="M3.47516 15.36H10.9152V18H0.715156V1.2H10.7952V3.84H3.47516V8.208H10.1952V10.824H3.47516V15.36ZM21.4097 6H24.2417L19.5617 18H16.5617L11.8817 6H14.7137L18.0737 15.12L21.4097 6ZM27.4543 13.104C27.6463 14.016 28.0863 14.72 28.7743 15.216C29.4623 15.696 30.3023 15.936 31.2943 15.936C32.6703 15.936 33.7023 15.44 34.3903 14.448L36.5263 15.696C35.3423 17.44 33.5903 18.312 31.2703 18.312C29.3183 18.312 27.7423 17.72 26.5423 16.536C25.3423 15.336 24.7423 13.824 24.7423 12C24.7423 10.208 25.3343 8.712 26.5183 7.512C27.7023 6.296 29.2223 5.688 31.0783 5.688C32.8383 5.688 34.2783 6.304 35.3983 7.536C36.5343 8.768 37.1023 10.264 37.1023 12.024C37.1023 12.296 37.0703 12.656 37.0063 13.104H27.4543ZM27.4303 10.992H34.4863C34.3103 10.016 33.9023 9.28 33.2623 8.784C32.6383 8.288 31.9023 8.04 31.0543 8.04C30.0943 8.04 29.2943 8.304 28.6543 8.832C28.0143 9.36 27.6063 10.08 27.4303 10.992ZM41.9751 8.016C42.6311 6.528 43.8631 5.784 45.6711 5.784V8.592C44.6791 8.528 43.8151 8.768 43.0791 9.312C42.3431 9.84 41.9751 10.72 41.9751 11.952V18H39.3831V6H41.9751V8.016ZM55.9086 6H58.6686L54.0606 18.384C52.9086 21.488 50.9566 22.96 48.2046 22.8V20.376C49.0206 20.424 49.6766 20.248 50.1726 19.848C50.6686 19.464 51.0766 18.856 51.3966 18.024L51.5166 17.784L46.4286 6H49.2606L52.8366 14.712L55.9086 6ZM66.9853 8.496H64.0093V14.256C64.0093 14.752 64.1213 15.112 64.3453 15.336C64.5693 15.544 64.8973 15.664 65.3293 15.696C65.7773 15.712 66.3293 15.704 66.9853 15.672V18C65.0013 18.24 63.5773 18.072 62.7133 17.496C61.8493 16.904 61.4173 15.824 61.4173 14.256V8.496H59.2093V6H61.4173V3.408L64.0093 2.64V6H66.9853V8.496ZM75.6482 5.688C77.0242 5.688 78.1362 6.128 78.9842 7.008C79.8322 7.888 80.2562 9.096 80.2562 10.632V18H77.6642V10.896C77.6642 10 77.4242 9.312 76.9442 8.832C76.4642 8.352 75.8082 8.112 74.9762 8.112C74.0642 8.112 73.3282 8.4 72.7682 8.976C72.2082 9.536 71.9282 10.4 71.9282 11.568V18H69.3362V1.2H71.9282V7.536C72.7122 6.304 73.9522 5.688 75.6482 5.688ZM85.4952 3.72C85.1752 4.04 84.7912 4.2 84.3432 4.2C83.8952 4.2 83.5032 4.04 83.1672 3.72C82.8472 3.384 82.6872 2.992 82.6872 2.544C82.6872 2.096 82.8472 1.712 83.1672 1.392C83.4872 1.056 83.8792 0.887999 84.3432 0.887999C84.8072 0.887999 85.1992 1.056 85.5192 1.392C85.8392 1.712 85.9992 2.096 85.9992 2.544C85.9992 2.992 85.8312 3.384 85.4952 3.72ZM83.0472 18V6H85.6392V18H83.0472ZM94.9607 5.688C96.3367 5.688 97.4487 6.128 98.2967 7.008C99.1447 7.888 99.5687 9.096 99.5687 10.632V18H96.9767V10.896C96.9767 10 96.7367 9.312 96.2567 8.832C95.7767 8.352 95.1207 8.112 94.2887 8.112C93.3767 8.112 92.6407 8.4 92.0807 8.976C91.5207 9.536 91.2407 10.4 91.2407 11.568V18H88.6487V6H91.2407V7.536C92.0247 6.304 93.2647 5.688 94.9607 5.688ZM111.912 6H114.456V17.448C114.456 19.272 113.856 20.672 112.656 21.648C111.456 22.624 110 23.112 108.288 23.112C105.52 23.112 103.624 22.144 102.6 20.208L104.832 18.912C105.456 20.144 106.624 20.76 108.336 20.76C109.456 20.76 110.328 20.464 110.952 19.872C111.592 19.296 111.912 18.488 111.912 17.448V15.984C110.936 17.376 109.544 18.072 107.736 18.072C106.04 18.072 104.608 17.472 103.44 16.272C102.272 15.056 101.688 13.592 101.688 11.88C101.688 10.168 102.272 8.712 103.44 7.512C104.608 6.296 106.04 5.688 107.736 5.688C109.544 5.688 110.936 6.384 111.912 7.776V6ZM105.36 14.568C106.096 15.288 107.008 15.648 108.096 15.648C109.184 15.648 110.088 15.288 110.808 14.568C111.544 13.848 111.912 12.952 111.912 11.88C111.912 10.808 111.544 9.912 110.808 9.192C110.088 8.472 109.184 8.112 108.096 8.112C107.008 8.112 106.096 8.472 105.36 9.192C104.64 9.912 104.28 10.808 104.28 11.88C104.28 12.952 104.64 13.848 105.36 14.568Z" fill="#EFF2FD"/>
</svg>
