<svg width="41" height="19" viewBox="0 0 41 19" fill="none" xmlns="http://www.w3.org/2000/svg">
<path d="M2.76031 15.36H9.60031V18H0.000312507V1.2H2.76031V15.36ZM13.9288 3.72C13.6088 4.04 13.2248 4.2 12.7768 4.2C12.3288 4.2 11.9368 4.04 11.6008 3.72C11.2808 3.384 11.1208 2.992 11.1208 2.544C11.1208 2.096 11.2808 1.712 11.6008 1.392C11.9208 1.056 12.3128 0.887999 12.7768 0.887999C13.2408 0.887999 13.6328 1.056 13.9528 1.392C14.2728 1.712 14.4328 2.096 14.4328 2.544C14.4328 2.992 14.2648 3.384 13.9288 3.72ZM11.4808 18V6H14.0728V18H11.4808ZM25.2183 6H28.0503L23.3703 18H20.3703L15.6903 6H18.5223L21.8823 15.12L25.2183 6ZM31.2629 13.104C31.4549 14.016 31.8949 14.72 32.5829 15.216C33.2709 15.696 34.1109 15.936 35.1029 15.936C36.4789 15.936 37.5109 15.44 38.1989 14.448L40.3349 15.696C39.1509 17.44 37.3989 18.312 35.0789 18.312C33.1269 18.312 31.5509 17.72 30.3509 16.536C29.1509 15.336 28.5509 13.824 28.5509 12C28.5509 10.208 29.1429 8.712 30.3269 7.512C31.5109 6.296 33.0309 5.688 34.8869 5.688C36.6469 5.688 38.0869 6.304 39.2069 7.536C40.3429 8.768 40.9109 10.264 40.9109 12.024C40.9109 12.296 40.8789 12.656 40.8149 13.104H31.2629ZM31.2389 10.992H38.2949C38.1189 10.016 37.7109 9.28 37.0709 8.784C36.4469 8.288 35.7109 8.04 34.8629 8.04C33.9029 8.04 33.1029 8.304 32.4629 8.832C31.8229 9.36 31.4149 10.08 31.2389 10.992Z" fill="#EFF2FD"/>
</svg>
