<svg width="174" height="80" viewBox="0 0 174 80" fill="none" xmlns="http://www.w3.org/2000/svg">
<rect width="174" height="80" rx="6" fill="#131B3F"/>
<path d="M33.4752 45.36H40.9152V48H30.7152V31.2H40.7952V33.84H33.4752V38.208H40.1952V40.824H33.4752V45.36ZM51.4097 36H54.2417L49.5617 48H46.5617L41.8817 36H44.7137L48.0737 45.12L51.4097 36ZM57.4543 43.104C57.6463 44.016 58.0863 44.72 58.7743 45.216C59.4623 45.696 60.3023 45.936 61.2943 45.936C62.6703 45.936 63.7023 45.44 64.3903 44.448L66.5263 45.696C65.3423 47.44 63.5903 48.312 61.2703 48.312C59.3183 48.312 57.7423 47.72 56.5423 46.536C55.3423 45.336 54.7423 43.824 54.7423 42C54.7423 40.208 55.3343 38.712 56.5183 37.512C57.7023 36.296 59.2223 35.688 61.0783 35.688C62.8383 35.688 64.2783 36.304 65.3983 37.536C66.5343 38.768 67.1023 40.264 67.1023 42.024C67.1023 42.296 67.0703 42.656 67.0063 43.104H57.4543ZM57.4303 40.992H64.4863C64.3103 40.016 63.9023 39.28 63.2623 38.784C62.6383 38.288 61.9023 38.04 61.0543 38.04C60.0943 38.04 59.2943 38.304 58.6543 38.832C58.0143 39.36 57.6063 40.08 57.4303 40.992ZM71.9751 38.016C72.6311 36.528 73.8631 35.784 75.6711 35.784V38.592C74.6791 38.528 73.8151 38.768 73.0791 39.312C72.3431 39.84 71.9751 40.72 71.9751 41.952V48H69.3831V36H71.9751V38.016ZM85.9086 36H88.6686L84.0606 48.384C82.9086 51.488 80.9566 52.96 78.2046 52.8V50.376C79.0206 50.424 79.6766 50.248 80.1726 49.848C80.6686 49.464 81.0766 48.856 81.3966 48.024L81.5166 47.784L76.4286 36H79.2606L82.8366 44.712L85.9086 36ZM96.9853 38.496H94.0093V44.256C94.0093 44.752 94.1213 45.112 94.3453 45.336C94.5693 45.544 94.8973 45.664 95.3293 45.696C95.7773 45.712 96.3293 45.704 96.9853 45.672V48C95.0013 48.24 93.5773 48.072 92.7133 47.496C91.8493 46.904 91.4173 45.824 91.4173 44.256V38.496H89.2093V36H91.4173V33.408L94.0093 32.64V36H96.9853V38.496ZM105.648 35.688C107.024 35.688 108.136 36.128 108.984 37.008C109.832 37.888 110.256 39.096 110.256 40.632V48H107.664V40.896C107.664 40 107.424 39.312 106.944 38.832C106.464 38.352 105.808 38.112 104.976 38.112C104.064 38.112 103.328 38.4 102.768 38.976C102.208 39.536 101.928 40.4 101.928 41.568V48H99.3362V31.2H101.928V37.536C102.712 36.304 103.952 35.688 105.648 35.688ZM115.495 33.72C115.175 34.04 114.791 34.2 114.343 34.2C113.895 34.2 113.503 34.04 113.167 33.72C112.847 33.384 112.687 32.992 112.687 32.544C112.687 32.096 112.847 31.712 113.167 31.392C113.487 31.056 113.879 30.888 114.343 30.888C114.807 30.888 115.199 31.056 115.519 31.392C115.839 31.712 115.999 32.096 115.999 32.544C115.999 32.992 115.831 33.384 115.495 33.72ZM113.047 48V36H115.639V48H113.047ZM124.961 35.688C126.337 35.688 127.449 36.128 128.297 37.008C129.145 37.888 129.569 39.096 129.569 40.632V48H126.977V40.896C126.977 40 126.737 39.312 126.257 38.832C125.777 38.352 125.121 38.112 124.289 38.112C123.377 38.112 122.641 38.4 122.081 38.976C121.521 39.536 121.241 40.4 121.241 41.568V48H118.649V36H121.241V37.536C122.025 36.304 123.265 35.688 124.961 35.688ZM141.912 36H144.456V47.448C144.456 49.272 143.856 50.672 142.656 51.648C141.456 52.624 140 53.112 138.288 53.112C135.52 53.112 133.624 52.144 132.6 50.208L134.832 48.912C135.456 50.144 136.624 50.76 138.336 50.76C139.456 50.76 140.328 50.464 140.952 49.872C141.592 49.296 141.912 48.488 141.912 47.448V45.984C140.936 47.376 139.544 48.072 137.736 48.072C136.04 48.072 134.608 47.472 133.44 46.272C132.272 45.056 131.688 43.592 131.688 41.88C131.688 40.168 132.272 38.712 133.44 37.512C134.608 36.296 136.04 35.688 137.736 35.688C139.544 35.688 140.936 36.384 141.912 37.776V36ZM135.36 44.568C136.096 45.288 137.008 45.648 138.096 45.648C139.184 45.648 140.088 45.288 140.808 44.568C141.544 43.848 141.912 42.952 141.912 41.88C141.912 40.808 141.544 39.912 140.808 39.192C140.088 38.472 139.184 38.112 138.096 38.112C137.008 38.112 136.096 38.472 135.36 39.192C134.64 39.912 134.28 40.808 134.28 41.88C134.28 42.952 134.64 43.848 135.36 44.568Z" fill="#EFF2FD"/>
</svg>
