<svg width="173" height="80" viewBox="0 0 173 80" fill="none" xmlns="http://www.w3.org/2000/svg">
<rect width="173" height="80" rx="6" fill="#131B3F"/>
<path d="M68.7603 45.36H75.6003V48H66.0003V31.2H68.7603V45.36ZM79.9288 33.72C79.6088 34.04 79.2248 34.2 78.7768 34.2C78.3288 34.2 77.9368 34.04 77.6008 33.72C77.2808 33.384 77.1208 32.992 77.1208 32.544C77.1208 32.096 77.2808 31.712 77.6008 31.392C77.9208 31.056 78.3128 30.888 78.7768 30.888C79.2408 30.888 79.6328 31.056 79.9528 31.392C80.2728 31.712 80.4328 32.096 80.4328 32.544C80.4328 32.992 80.2648 33.384 79.9288 33.72ZM77.4808 48V36H80.0728V48H77.4808ZM91.2183 36H94.0503L89.3703 48H86.3703L81.6903 36H84.5223L87.8823 45.12L91.2183 36ZM97.2629 43.104C97.4549 44.016 97.8949 44.72 98.5829 45.216C99.2709 45.696 100.111 45.936 101.103 45.936C102.479 45.936 103.511 45.44 104.199 44.448L106.335 45.696C105.151 47.44 103.399 48.312 101.079 48.312C99.1269 48.312 97.5509 47.72 96.3509 46.536C95.1509 45.336 94.5509 43.824 94.5509 42C94.5509 40.208 95.1429 38.712 96.3269 37.512C97.5109 36.296 99.0309 35.688 100.887 35.688C102.647 35.688 104.087 36.304 105.207 37.536C106.343 38.768 106.911 40.264 106.911 42.024C106.911 42.296 106.879 42.656 106.815 43.104H97.2629ZM97.2389 40.992H104.295C104.119 40.016 103.711 39.28 103.071 38.784C102.447 38.288 101.711 38.04 100.863 38.04C99.9029 38.04 99.1029 38.304 98.4629 38.832C97.8229 39.36 97.4149 40.08 97.2389 40.992Z" fill="#EFF2FD"/>
</svg>
